<svg xmlns="http://www.w3.org/2000/svg" viewBox="0 0 16 16">
  <path fill="currentColor" fill-rule="evenodd" clip-rule="evenodd"
    d="M4 1a2 2 0 0 0-2 2v10a2 2 0 0 0 2 2h8a2 2 0 0 0 2-2V3a2 2 0 0 0-2-2H4zm0 1h8a1 1 0 0 1 1 1v10a1 1 0 0 1-1 1H4a1 1 0 0 1-1-1V3a1 1 0 0 1 1-1z"/>
  <rect fill="currentColor" x="3" y="2" width="10" height="7" rx="0.5" opacity="0.5"/>
  <circle fill="currentColor" cx="5" cy="12" r="1.1"/>
  <circle fill="currentColor" cx="8" cy="12" r="1.1"/>
  <circle fill="currentColor" cx="11" cy="12" r="1.1"/>
</svg>
